<?xml version="1.0" standalone="no"?>
<!DOCTYPE svg PUBLIC "-//W3C//DTD SVG 20010904//EN"
 "http://www.w3.org/TR/2001/REC-SVG-20010904/DTD/svg10.dtd">
<svg version="1.0" xmlns="http://www.w3.org/2000/svg"
 width="205.000000pt" height="205.000000pt" viewBox="0 0 205.000000 205.000000"
 preserveAspectRatio="xMidYMid meet">
<metadata>
Created by potrace 1.11, written by Peter Selinger 2001-2013
</metadata>
<g transform="translate(0.000000,205.000000) scale(0.100000,-0.100000)"
fill="#000000" stroke="none">
<path d="M859 2025 c-91 -17 -239 -63 -239 -74 0 -4 -6 -8 -14 -8 -22 0 -147
-74 -141 -83 3 -6 0 -8 -7 -5 -7 3 -27 -8 -45 -23 -17 -15 -52 -44 -77 -65
-26 -21 -44 -43 -40 -48 3 -5 1 -8 -4 -7 -22 7 -178 -214 -166 -234 3 -4 1 -8
-4 -8 -10 0 -50 -85 -55 -117 -1 -10 -6 -23 -9 -29 -4 -5 -16 -56 -27 -111
-34 -163 -26 -311 26 -483 24 -82 109 -258 139 -290 8 -8 30 -36 50 -63 20
-27 40 -45 46 -41 6 4 8 3 5 -3 -23 -38 328 -266 409 -266 13 1 22 -3 19 -7
-10 -16 200 -50 303 -49 74 1 107 4 207 23 75 14 208 61 228 80 6 7 17 13 22
14 31 6 45 15 39 24 -4 6 -2 8 4 4 14 -9 84 33 75 47 -3 5 -1 7 4 4 21 -13
126 81 212 189 64 80 156 248 147 270 -3 8 -2 13 2 10 10 -6 35 61 28 73 -4 5
-2 11 3 13 15 5 39 161 40 258 1 80 -21 250 -37 274 -3 6 -7 16 -7 21 -2 65
-163 355 -196 355 -6 0 -8 4 -5 9 3 4 -23 35 -57 68 -191 183 -423 281 -682
289 -78 2 -147 -2 -196 -11z"/>
</g>
</svg>
